<svg width="1736" height="492" viewBox="0 0 1736 492" fill="none" xmlns="http://www.w3.org/2000/svg">
<path d="M303.781 361H70.1559V360.811L100.973 316.8H334.731L303.781 361ZM365.679 272.6H132.038V272.434L162.871 228.4H396.629L365.679 272.6ZM427.577 184.2H61.6422L92.5914 140H458.527L427.577 184.2Z" fill="#219ECF"/>
<path d="M411.343 361H357.388L512.131 140H566.09L411.343 361Z" fill="#F7A41D"/>
<path d="M674.104 140.324C708.05 140.324 738.418 155.652 758.675 179.768L717.114 191.035C705.015 182.305 690.161 177.157 674.104 177.157C633.446 177.157 600.484 210.139 600.484 250.824C600.484 291.509 633.446 324.491 674.104 324.491C688.656 324.491 702.218 320.263 713.638 312.973V278.449H659.38V241.616H749.564V242.315H750.447V330.716H750.382L750.384 330.723C730.559 349.679 703.691 361.324 674.104 361.324C613.116 361.324 563.675 311.852 563.675 250.824C563.675 189.797 613.116 140.324 674.104 140.324Z" fill="#040404"/>
<path d="M850.193 364.196C834.213 364.196 820.364 360.68 808.645 353.649C796.926 346.618 787.835 336.781 781.372 324.139C774.98 311.497 771.784 296.724 771.784 279.821C771.784 262.918 774.98 248.109 781.372 235.396C787.835 222.683 796.926 212.811 808.645 205.78C820.364 198.749 834.213 195.233 850.193 195.233C866.173 195.233 880.023 198.749 891.741 205.78C903.46 212.811 912.516 222.683 918.908 235.396C925.371 248.109 928.602 262.918 928.602 279.821C928.602 296.724 925.371 311.497 918.908 324.139C912.516 336.781 903.46 346.618 891.741 353.649C880.023 360.68 866.173 364.196 850.193 364.196ZM850.406 333.301C859.071 333.301 866.315 330.922 872.139 326.163C877.963 321.334 882.295 314.871 885.136 306.774C888.048 298.678 889.504 289.658 889.504 279.714C889.504 269.7 888.048 260.645 885.136 252.548C882.295 244.381 877.963 237.882 872.139 233.053C866.315 228.223 859.071 225.808 850.406 225.808C841.528 225.808 834.142 228.223 828.247 233.053C822.423 237.882 818.055 244.381 815.143 252.548C812.303 260.645 810.882 269.7 810.882 279.714C810.882 289.658 812.303 298.678 815.143 306.774C818.055 314.871 822.423 321.334 828.247 326.163C834.142 330.922 841.528 333.301 850.406 333.301ZM957.654 361V171.909H997.633V249.928H1078.79V171.909H1118.68V361H1078.79V282.889H997.633V361H957.654ZM1144.18 204.871V171.909H1299.48V204.871H1241.58V361H1202.07V204.871H1144.18ZM1324.79 171.909H1374.09L1426.17 298.955H1428.38L1480.46 171.909H1529.76V361H1490.98V237.925H1489.41L1440.48 360.077H1414.07L1365.14 237.463H1363.57V361H1324.79V171.909ZM1562.44 361V171.909H1602.42V328.038H1683.48V361H1562.44Z" fill="#040404"/>
</svg>
